<svg xmlns="http://www.w3.org/2000/svg" version="1.1" xmlns:xlink="http://www.w3.org/1999/xlink" xmlns:svgjs="http://svgjs.dev/svgjs" viewBox="0 0 1920 1080" class="overflow-hidden rounded-md drop-shadow-lg transition duration-300" style="overflow: hidden; height: 85vh;"><rect width="1920" height="1080" fill="#aa22e2"/><g clip-path="url(&quot;#SvgjsClipPath1241&quot;)"><g transform="matrix(1.15,0,0,1.15,-140.89198837280264,-81)"><path d="M0,-1080C-0.5293276865415587,-953.3425713257998,3.716862990376252,-600.3159364809319,-3.1759661192493525,-320.0554279547985C-10.068795228874958,-39.79491942866514,-39.716428383173564,313.48437699155664,-41.356974657753625,601.5630511568002C-42.997520932333686,889.6417253220436,-19.91207287635532,1148.6771255627962,-13.019243766729716,1408.4166170366627C-6.126414657104111,1668.1561085105293,-2.169873961121619,2034.736102839444,0,2160L 1920 2160 L 1920 -1080 Z" fill="url(&quot;#SvgjsLinearGradient1232&quot;)"/><path d="M213.33333333333331,-1080C202.86566316612863,-990.6841529946051,157.8354524699659,-730.2175420453382,150.52731233010513,-544.1049179676309C143.21917219024436,-357.99229388992353,158.73861802239838,-142.12085343912858,169.48449249416876,36.67574446624374C180.23036696593914,215.47234237161607,207.31733001179623,361.840623581165,215.0025591607275,528.6746694646031C222.68778830965874,695.5087153480412,205.82770190795043,846.3438991677007,215.5958673877563,1037.6800197668724C225.36403286756217,1229.016140366044,273.98864104863327,1489.638063020779,273.61155203956275,1676.6913930596336C273.23446303049224,1863.744723098488,223.37970311770488,2079.448565509939,213.33333333333331,2160L 1920 2160 L 1920 -1080 Z" fill="url(&quot;#SvgjsLinearGradient1233&quot;)"/><path d="M426.66666666666663,-1080C418.2676170062084,-993.0803832539798,383.40692384477796,-705.1318875638011,376.2723687039174,-558.4822995238785C369.1378135630568,-411.8327114839559,378.95726913076817,-344.4762565813492,383.8593358215031,-200.1024717604643C388.7614025122381,-55.728686939579404,388.01295724698963,144.85417340803534,405.68476884832717,307.76040940143093C423.3565804496647,470.66664539482656,486.34470724710957,615.4253469212304,489.89020542952835,777.3349441999092C493.43570361194713,939.244541478588,446.50259728011866,1124.2444499054375,426.95775794283986,1279.217993073504C407.41291860556106,1434.1915362415705,372.66968461855106,1560.3792020538924,372.62116940585554,1707.1762032083084C372.57265419316,1853.9732043627243,417.6590837898648,2084.529367201385,426.66666666666663,2160L 1920 2160 L 1920 -1080 Z" fill="url(&quot;#SvgjsLinearGradient1234&quot;)"/><path d="M640,-1080C630.4535134612166,-979.0437011655962,591.8848680925142,-692.3079798837339,582.7210807672998,-474.2622069935771C573.5572934420853,-256.21643410342034,580.367879629855,5.889979431237691,585.0172760487131,228.2746373409405C589.6666724675713,450.6592952506433,610.5127687845353,648.0960476322709,610.6174592804489,860.0457404646398C610.7221497763625,1071.9954332970087,580.7483289042696,1283.3137510792608,585.6454190241948,1499.972794335154C590.54250914412,1716.6318375910473,630.9409031706991,2049.9954657225258,640,2160L 1920 2160 L 1920 -1080 Z" fill="url(&quot;#SvgjsLinearGradient1235&quot;)"/><path d="M853.3333333333333,-1080C846.508555798138,-937.8452556431968,803.5644317364126,-496.2028568155109,812.3846681221614,-227.0715338591808C821.2049045079102,42.05978909714938,890.5637035095704,262.4873104119057,906.254751647826,534.7879377379808C921.9457997860816,807.0885650640558,915.3511933374442,1135.8635530535998,906.5309569516954,1406.7322300972696C897.7107205659466,1677.6009071409394,862.1996039363936,2034.4553716828782,853.3333333333333,2160L 1920 2160 L 1920 -1080 Z" fill="url(&quot;#SvgjsLinearGradient1236&quot;)"/><path d="M1066.6666666666667,-1080C1066.4981743918502,-1000.994155940717,1065.3888306719564,-764.3061071024104,1065.6557130177678,-605.9649356443017C1065.9225953635791,-447.623764186193,1065.131925023448,-275.08423599769424,1068.2679607415346,-129.95297125134775C1071.403996459621,15.178293494998712,1074.2847450800664,111.71273551654119,1084.4719273262872,264.82265283377706C1094.659109572508,417.9325701510129,1134.6753008643502,635.657264395524,1129.3910542188596,788.7065326520674C1124.106807573369,941.7558009086108,1067.5678244332153,1027.4642507385001,1052.7664474533435,1183.1182623730374C1037.9650704734718,1338.7722740075747,1038.266089137408,1559.8169795214644,1040.5827923396284,1722.6306024592916C1042.8994955418489,1885.4442253971188,1062.319354278827,2087.1051004098817,1066.6666666666667,2160L 1920 2160 L 1920 -1080 Z" fill="url(&quot;#SvgjsLinearGradient1237&quot;)"/><path d="M1280,-1080C1280.9780453695748,-961.5868826655488,1286.1856727178852,-587.3216196919318,1285.8682722174497,-369.52129599329317C1285.5508717170142,-151.72097229465456,1279.6154474670627,29.462320713457615,1278.0955969973866,226.80194219183153C1276.5757465277104,424.1415636702054,1267.5062685117505,607.3385108662187,1276.7491693993925,814.5164328769501C1285.9920702870345,1021.6943548876816,1333.0111972231373,1245.6222130690453,1333.5530023232386,1469.8694742562202C1334.09480742334,1694.116735443395,1288.9255003872065,2044.97824570937,1280,2160L 1920 2160 L 1920 -1080 Z" fill="url(&quot;#SvgjsLinearGradient1238&quot;)"/><path d="M1493.3333333333333,-1080C1492.2140988425049,-967.2994625867555,1484.1151484449233,-609.8207653386362,1486.6179263883628,-403.7967755205329C1489.1207043318022,-197.77278570242956,1504.493135752335,-49.39767957230731,1508.3500009939708,156.14393890861984C1512.2068662356064,361.685557389547,1510.4394875833977,611.3484396753569,1509.7591178381763,829.45293536503C1509.0787480929548,1047.557431054703,1507.0054132734485,1243.0130689408304,1504.2677825226415,1464.7709130466587C1501.5301517718344,1686.528757152487,1495.1557415315513,2044.1284855077765,1493.3333333333333,2160L 1920 2160 L 1920 -1080 Z" fill="url(&quot;#SvgjsLinearGradient1239&quot;)"/><path d="M1706.6666666666665,-1080C1705.1510792253468,-986.255306783949,1704.1707322871832,-707.1218864656055,1697.5731420187483,-517.531840703694C1690.9755517503133,-327.9417949417825,1665.347343911153,-114.48085618001937,1667.081125056057,57.54027457146876C1668.814906200961,229.5614053229569,1706.913033881825,350.48366696380447,1707.9758288881721,514.5949438052346C1709.0386238945193,678.7062206466647,1672.3996770390554,865.1966178336781,1673.4578950941407,1042.2079356200495C1674.516113149226,1219.2192534064209,1708.7903419565955,1390.3641731268046,1714.3251372186833,1576.662850523463C1719.859932480771,1762.9615279201214,1707.943078425336,2062.7771417539107,1706.6666666666665,2160L 1920 2160 L 1920 -1080 Z" fill="url(&quot;#SvgjsLinearGradient1240&quot;)"/></g></g><defs><linearGradient x1="0.1" y1="0" x2="0" y2="1" id="SvgjsLinearGradient1232"><stop stop-color="#aa22e2" offset="0"/><stop stop-color="#8a22e2" offset="0"/></linearGradient><linearGradient x1="0.1" y1="0" x2="0" y2="1" id="SvgjsLinearGradient1233"><stop stop-color="#b641e6" offset="0"/><stop stop-color="#9a41e6" offset="0.1111111111111111"/></linearGradient><linearGradient x1="0.1" y1="0" x2="0" y2="1" id="SvgjsLinearGradient1234"><stop stop-color="#c260ea" offset="0"/><stop stop-color="#ab60ea" offset="0.2222222222222222"/></linearGradient><linearGradient x1="0.1" y1="0" x2="0" y2="1" id="SvgjsLinearGradient1235"><stop stop-color="#ce7fee" offset="0"/><stop stop-color="#bb7fee" offset="0.3333333333333333"/></linearGradient><linearGradient x1="0.1" y1="0" x2="0" y2="1" id="SvgjsLinearGradient1236"><stop stop-color="#da9ef2" offset="0"/><stop stop-color="#cc9ef2" offset="0.4444444444444444"/></linearGradient><linearGradient x1="0.1" y1="0" x2="0" y2="1" id="SvgjsLinearGradient1237"><stop stop-color="#e6bef6" offset="0"/><stop stop-color="#ddbef6" offset="0.5555555555555556"/></linearGradient><linearGradient x1="0.1" y1="0" x2="0" y2="1" id="SvgjsLinearGradient1238"><stop stop-color="#f2ddfb" offset="0"/><stop stop-color="#edddfb" offset="0.6666666666666666"/></linearGradient><linearGradient x1="0.1" y1="0" x2="0" y2="1" id="SvgjsLinearGradient1239"><stop stop-color="#fefcff" offset="0"/><stop stop-color="#fdfcff" offset="0.7777777777777778"/></linearGradient><linearGradient x1="0.1" y1="0" x2="0" y2="1" id="SvgjsLinearGradient1240"><stop stop-color="#ffffff" offset="0"/><stop stop-color="#ffffff" offset="0.8888888888888888"/></linearGradient><clipPath id="SvgjsClipPath1241"><rect width="1920" height="1080"/></clipPath></defs></svg>