<?xml version="1.0" encoding="iso-8859-1"?>
<!-- Generator: Adobe Illustrator 19.0.0, SVG Export Plug-In . SVG Version: 6.00 Build 0)  -->
<svg version="1.1" id="Layer_1" xmlns="http://www.w3.org/2000/svg" xmlns:xlink="http://www.w3.org/1999/xlink" x="0px" y="0px"
	 viewBox="0 0 512.002 512.002" style="enable-background:new 0 0 512.002 512.002;" xml:space="preserve">
<g>
	<path style="fill:#16153B;" d="M194.513,150.824h-12.642c-7.463,0-13.516-6.052-13.516-13.516s6.052-13.516,13.516-13.516h12.642
		c8.166,0,14.81-6.643,14.81-14.809c0-7.659-5.971-14.139-13.593-14.752c-7.021-0.565-12.432-6.428-12.432-13.472
		c0-0.049,0-0.115,0.001-0.178c-0.042-11.986-9.806-21.725-21.802-21.725c-4.067,0-8.035,1.13-11.475,3.265
		c-5.697,3.54-13.125,2.364-17.453-2.754c-4.856-5.744-11.942-9.039-19.442-9.039c-14.033,0-25.448,11.415-25.448,25.448
		c0,1.726,0.173,3.449,0.514,5.117c0.747,3.668-0.059,7.481-2.227,10.531c-2.168,3.05-5.504,5.064-9.214,5.564
		c-6.635,0.892-11.638,6.625-11.638,13.337c0,7.424,6.041,13.466,13.467,13.466h44.335c7.463,0,13.516,6.052,13.516,13.516
		s-6.052,13.516-13.516,13.516H78.579c-22.33,0-40.498-18.166-40.498-40.497c0-15.708,9.127-29.638,22.597-36.314
		c0.933-28.126,24.104-50.716,52.451-50.716c11.875,0,23.243,3.998,32.409,11.206c5.105-1.765,10.495-2.677,15.961-2.677
		c23.194,0,42.663,16.254,47.614,37.971c15.928,5.991,27.241,21.475,27.241,39.188C236.354,132.054,217.584,150.824,194.513,150.824
		z"/>
	<path style="fill:#16153B;" d="M473.241,488.705H348.366c-7.463,0-13.516-6.052-13.516-13.516s6.052-13.516,13.516-13.516h124.876
		c3.993,0,7.55-1.907,9.76-5.232c2.208-3.325,2.588-7.342,1.042-11.021L335.475,91.844c-0.041-0.097-0.082-0.196-0.12-0.295
		c-1.642-4.182-5.301-4.633-6.797-4.633s-5.155,0.451-6.797,4.633l-58.676,149.359c-2.729,6.948-10.573,10.369-17.522,7.638
		c-6.948-2.73-10.368-10.573-7.638-17.522l58.676-149.359c5.198-13.232,17.742-21.78,31.958-21.78
		c14.156,0,26.655,8.478,31.893,21.617l148.514,353.446c5.04,11.991,3.749,25.619-3.449,36.453
		C498.315,482.236,486.25,488.705,473.241,488.705z"/>
</g>
<path style="fill:#97C4E8;" d="M38.78,475.189c-18.72,0-30.922-19.671-22.603-36.442l118.576-239.068
	c7.377-16.332,30.571-16.332,37.948,0l118.576,239.068c8.319,16.771-3.883,36.442-22.603,36.442H38.78z"/>
<path style="fill:#16153B;" d="M268.671,488.705H38.78c-13.502,0-25.812-6.85-32.927-18.324
	c-7.117-11.473-7.784-25.543-1.783-37.639l118.477-238.874c5.675-12.315,17.597-19.953,31.178-19.953s25.502,7.638,31.178,19.953
	l118.48,238.874c5.998,12.095,5.331,26.166-1.785,37.641C294.482,481.855,282.172,488.705,268.671,488.705z M153.726,200.947
	c-1.418,0-4.905,0.419-6.656,4.297c-0.068,0.149-0.138,0.296-0.208,0.442L28.285,444.754c-2.617,5.271-0.495,9.715,0.538,11.381
	s4.072,5.54,9.956,5.54H268.67c5.885,0,8.924-3.874,9.956-5.541c1.034-1.665,3.155-6.109,0.539-11.38L160.592,205.685
	c-0.072-0.145-0.141-0.293-0.208-0.441C158.631,201.364,155.144,200.947,153.726,200.947z"/>
<path style="fill:#97C4E8;" d="M392.116,199.07L347.935,86.608C341.017,69,316.098,69,309.18,86.608l-30.153,76.752l18.88,62.245
	l32.439-38.176l39.195,56.196L392.116,199.07z"/>
<path style="fill:#16153B;" d="M369.538,257.14c-4.397,0-8.545-2.145-11.083-5.783l-29.164-41.814l-21.087,24.813
	c-3.202,3.768-8.201,5.489-13.049,4.48c-4.843-1.007-8.749-4.578-10.183-9.311l-18.878-62.242c-0.883-2.91-0.76-6.033,0.354-8.865
	l30.153-76.752c5.198-13.232,17.742-21.78,31.958-21.78s26.759,8.549,31.958,21.78l44.181,112.461
	c1.41,3.588,1.219,7.611-0.524,11.05l-22.575,44.555c-2.149,4.241-6.367,7.042-11.11,7.374
	C370.169,257.13,369.853,257.14,369.538,257.14z M330.344,173.914c0.215,0,0.428,0.005,0.646,0.016
	c4.187,0.199,8.043,2.33,10.442,5.768l26.267,37.66l9.622-18.989L335.356,91.551c-1.642-4.182-5.301-4.633-6.797-4.633
	s-5.155,0.451-6.797,4.633l-28.435,72.383l10.325,34.043l16.398-19.296C322.62,175.648,326.39,173.914,330.344,173.914z"/>
<g>
</g>
<g>
</g>
<g>
</g>
<g>
</g>
<g>
</g>
<g>
</g>
<g>
</g>
<g>
</g>
<g>
</g>
<g>
</g>
<g>
</g>
<g>
</g>
<g>
</g>
<g>
</g>
<g>
</g>
</svg>
